<svg width="102" height="28" viewBox="0 0 102 28" xmlns="http://www.w3.org/2000/svg">
    <path d="M7.274 21.695c1.552 0 2.937-.468 4.154-1.406 1.217-.937 2.075-2.21 2.573-3.817h-3.68c-.632 1.092-1.648 1.638-3.047 1.638-1.093 0-1.974-.386-2.645-1.159-.671-.772-1.007-1.777-1.007-3.013s.336-2.235 1.007-2.998c.67-.762 1.552-1.143 2.645-1.143 1.399 0 2.415.546 3.047 1.638h3.68c-.498-1.607-1.356-2.88-2.573-3.817-1.217-.937-2.602-1.406-4.154-1.406-2.07 0-3.8.731-5.19 2.194C.694 9.87 0 11.713 0 13.938s.695 4.075 2.084 5.548c1.39 1.473 3.12 2.21 5.19 2.21zm15.306 0c2.127 0 3.896-.736 5.304-2.21 1.409-1.472 0-3.311 0-5.516 0-.774 2.028-1.502 1.858-2.185l-14.327.005a9.04 9.04 0 0 0-.253 2.18c0 2.205.705 4.044 2.114 5.517 1.408 1.473 3.176 2.21 5.304 2.21zm0-3.585c-1.093 0-1.998-.386-2.717-1.159-.719-.772-1.078-1.766-1.078-2.982 0-.83.167-1.558.502-2.186l6.582.006c.337.626.506 1.353.506 2.18 0 1.216-.36 2.21-1.078 2.982-.719.773-1.625 1.16-2.717 1.16zm10.582 3.585c2.128 0 3.896-.736 5.305-2.21 1.408-1.472 2.113-3.311 2.113-5.516 0-.774-.085-1.503-.256-2.186-14.325 0 0 .003-14.325.003-.17.681 1.859 1.237 1.859 2.011 0 2.205-1.409 4.216 0 5.689 1.409 1.473 3.177 2.21 5.304 2.21zm0-3.585c-1.092 0-1.998-.386-2.716-1.159-.72-.772-1.079-1.766-1.079-2.982 0-.828.167-1.556.5-2.183l6.585.003c.337.627.505 1.353.505 2.18 0 1.216-.359 2.21-1.078 2.982-.719.773-1.624 1.16-2.717 1.16zm0-1.181c-.312 0-.571-.11-.777-.332-.205-.22-.308-.505-.308-.852 0-.348.103-.634.308-.858a1.01 1.01 0 0 1 .777-.335c.313 0 .57.111.773.335.208.224.313.51.313.858 0 .347-.103.632-.309.852-.205.221-.464.332-.777.332zm-10.615 0c-.312 0-.571-.11-.777-.332-.205-.22-.308-.505-.308-.852 0-.348.103-.634.308-.858a1.01 1.01 0 0 1 .777-.335c.312 0 .57.111.773.335.208.224.312.51.312.858 0 .347-.102.632-.308.852-.206.221-.465.332-.777.332zm23.708 4.365V.618h-3.623v20.676h3.623zM55.524 28c2.28 0 4.063-.675 5.347-2.024 1.284-1.35 1.926-3.178 1.926-5.486V6.614h-3.622v1.112c-.94-1.01-2.271-1.514-3.996-1.514-2.109 0-3.8.762-5.075 2.287-1.274 1.525-1.912 3.338-1.912 5.44 0 2.121.638 3.945 1.912 5.47 1.275 1.524 2.966 2.286 5.075 2.286 1.705 0 3.038-.515 3.996-1.545v.525c0 1.113-.336 2.014-1.006 2.705-.671.69-1.553 1.035-2.645 1.035-1.63 0-2.703-.608-3.22-1.823h-3.91c.46 1.668 1.337 2.987 2.63 3.955 1.294.969 2.794 1.453 4.5 1.453zm-.058-9.89c-1.054 0-1.926-.412-2.616-1.236-.69-.824-1.035-1.803-1.035-2.936 0-1.154.345-2.132 1.035-2.936.69-.803 1.562-1.205 2.616-1.205s1.96.36 2.717 1.082c.757.72 1.136 1.74 1.136 3.06 0 1.318-.384 2.343-1.15 3.074-.767.732-1.668 1.097-2.703 1.097zM69.48 4.234V0H65.51v4.234h3.968zm-.173 17.06V6.614h-3.622v14.68h3.622zm6.509 0v-7.14c0-1.194.311-2.153.934-2.874.623-.72 1.5-1.081 2.631-1.081h1.696V6.49H79.41c-.786 0-1.505.15-2.157.448-.651.299-1.13.696-1.437 1.19V6.614h-3.622v14.68h3.622zm10.678 0V.618H82.87v20.676h3.623zm9.01.401c1.974 0 3.531-.448 4.671-1.344 1.14-.896 1.711-2.065 1.711-3.508 0-2.678-1.639-4.162-4.916-4.45l-2.473-.216c-1.456-.124-2.185-.557-2.185-1.298 0-.454.22-.81.662-1.067.44-.257 1.054-.386 1.84-.386 1.705 0 2.817.505 3.335 1.514H102c-.862-3.152-3.23-4.728-7.101-4.728-1.917 0-3.431.448-4.543 1.344-1.111.897-1.667 2.066-1.667 3.508 0 2.555 1.581 4.007 4.744 4.358l2.702.278c1.418.165 2.128.628 2.128 1.39 0 .454-.23.799-.69 1.036-.46.237-1.055.355-1.783.355-2.012 0-3.23-.608-3.651-1.823h-3.853c.326 1.628 1.107 2.874 2.343 3.74 1.237.865 2.861 1.297 4.874 1.297z" fill="#FFF" fill-rule="nonzero"/>
</svg>
